<?xml version="1.0" standalone="no"?>
<!DOCTYPE svg PUBLIC "-//W3C//DTD SVG 20010904//EN"
 "http://www.w3.org/TR/2001/REC-SVG-20010904/DTD/svg10.dtd">
<svg version="1.0" xmlns="http://www.w3.org/2000/svg"
 width="95.000000pt" height="95.000000pt" viewBox="0 0 95.000000 95.000000"
 preserveAspectRatio="xMidYMid meet">
<metadata>
Created by potrace 1.11, written by Peter Selinger 2001-2013
</metadata>
<g transform="translate(0.000000,95.000000) scale(0.100000,-0.100000)"
fill="#000000" stroke="none">
<path d="M423 924 c-3 -8 -1 -20 5 -26 15 -15 43 8 35 28 -7 19 -32 18 -40 -2z"/>
<path d="M493 824 c-3 -8 2 -23 11 -32 15 -15 17 -15 32 0 21 21 11 48 -16 48
-11 0 -23 -7 -27 -16z"/>
<path d="M408 779 c-35 -20 -15 -69 29 -69 27 0 42 42 23 65 -14 17 -28 18
-52 4z"/>
<path d="M327 624 c-13 -13 -7 -71 8 -84 31 -25 15 -61 -90 -210 -105 -148
-105 -148 -105 -207 0 -51 4 -63 26 -84 l26 -24 285 0 285 0 24 28 c19 22 24
39 24 81 0 51 -4 59 -105 204 -106 151 -121 186 -89 212 10 9 14 26 12 49 l-3
36 -146 3 c-80 1 -148 -1 -152 -4z m173 -133 c0 -33 16 -61 106 -190 60 -85
104 -159 102 -169 -3 -15 -24 -17 -236 -20 l-232 -2 0 23 c0 13 45 86 105 172
89 126 105 154 105 187 0 34 3 38 25 38 22 0 25 -4 25 -39z"/>
<path d="M429 394 c-15 -18 -2 -47 24 -52 25 -5 40 33 21 52 -19 20 -28 20
-45 0z"/>
<path d="M430 286 c-14 -9 -33 -13 -42 -10 -12 4 -30 -13 -63 -57 -25 -35 -45
-67 -45 -71 0 -10 377 -11 383 0 3 4 -15 34 -38 67 -45 62 -46 62 -145 81 -14
2 -36 -2 -50 -10z m85 -50 c0 -52 -63 -62 -73 -12 -7 33 6 47 40 44 29 -3 33
-7 33 -32z m-125 -21 c6 -8 10 -22 8 -32 -5 -25 -51 -25 -56 0 -8 42 23 63 48
32z m208 -27 c-2 -15 -10 -23 -23 -23 -13 0 -21 8 -23 23 -3 18 1 22 23 22 22
0 26 -4 23 -22z"/>
</g>
</svg>
